<svg width="1728" height="1117" viewBox="0 0 1728 1117" fill="none" xmlns="http://www.w3.org/2000/svg">
<rect width="1728" height="1117" fill="#140E0E"/>
<rect x="300" y="200" width="1100" height="700" fill="#D9D9D9"/>
<rect x="300" y="400" width="100" height="100" fill="#140E0E"/>
<rect x="400" y="200" width="100" height="100" fill="#140E0E"/>
<rect x="1200" y="200" width="100" height="100" fill="#140E0E"/>
<rect x="700" y="800" width="100" height="100" fill="#140E0E"/>
<path d="M800 800H900V900H800V800Z" fill="#140E0E"/>
<rect x="800" y="200" width="100" height="100" fill="#140E0E"/>
<rect x="400" y="800" width="100" height="100" fill="#140E0E"/>
<rect x="300" y="700" width="100" height="100" fill="#140E0E"/>
<rect x="1300" y="300" width="100" height="100" fill="#140E0E"/>
<rect x="1200" y="800" width="100" height="100" fill="#140E0E"/>
<rect x="1300" y="800" width="100" height="100" fill="#140E0E"/>
<rect x="1300" y="700" width="100" height="100" fill="#140E0E"/>
<rect x="600" y="300" width="100" height="100" fill="#140E0E"/>
<rect x="700" y="200" width="100" height="100" fill="#140E0E"/>
<rect x="300" y="800" width="100" height="100" fill="#140E0E"/>
</svg>
