<svg width="1728" height="1117" viewBox="0 0 1728 1117" fill="none" xmlns="http://www.w3.org/2000/svg" xmlns:xlink="http://www.w3.org/1999/xlink">
<rect width="1728" height="1117" fill="#272424"/>
<rect width="1728" height="1117" fill="#272424"/>
<rect x="270" y="180" width="1125" height="765" fill="#D9D9D9"/>
<rect x="1260" y="180" width="45" height="45" fill="#272424"/>
<rect x="1350" y="180" width="45" height="45" fill="#272424"/>
<rect x="1350" y="270" width="45" height="45" fill="#272424"/>
<rect x="1305" y="225" width="45" height="45" fill="#272424"/>
<rect x="1305" y="360" width="45" height="45" fill="#272424"/>
<rect x="270" y="270" width="45" height="45" fill="#272424"/>
<rect x="1350" y="360" width="45" height="45" fill="#272424"/>
<rect x="1350" y="472" width="45" height="45" fill="#272424"/>
<rect x="1305" y="517" width="45" height="45" fill="#272424"/>
<rect x="1350" y="514" width="45" height="45" fill="#272424"/>
<rect x="315" y="225" width="45" height="45" fill="#272424"/>
<rect x="315" y="315" width="45" height="45" fill="#272424"/>
<rect x="1350" y="630" width="45" height="45" fill="#272424"/>
<rect x="270" y="540" width="45" height="45" fill="#272424"/>
<rect x="1350" y="900" width="45" height="45" fill="#272424"/>
<rect x="1260" y="900" width="45" height="45" fill="#272424"/>
<rect x="1125" y="855" width="45" height="45" fill="#272424"/>
<rect x="496" y="270" width="45" height="45" transform="rotate(180 496 270)" fill="#272424"/>
<rect x="360" y="630" width="45" height="45" transform="rotate(180 360 630)" fill="#272424"/>
<rect x="1080" y="900" width="45" height="45" fill="#272424"/>
<rect x="945" y="900" width="45" height="45" fill="#272424"/>
<rect x="450" y="900" width="45" height="45" fill="#272424"/>
<rect x="676" y="225" width="45" height="45" transform="rotate(180 676 225)" fill="#272424"/>
<rect x="810" y="900" width="45" height="45" fill="#272424"/>
<rect x="315" y="900" width="45" height="45" fill="#272424"/>
<rect x="855" y="900" width="45" height="45" fill="#272424"/>
<rect x="900" y="900" width="45" height="45" fill="#272424"/>
<rect x="900" y="855" width="45" height="45" fill="#272424"/>
<rect x="587" y="225" width="45" height="45" fill="#272424"/>
<rect x="1102" y="225" width="45" height="45" fill="#272424"/>
<rect x="1147" y="180" width="45" height="45" fill="#272424"/>
<rect x="1147" y="225" width="45" height="45" fill="#272424"/>
<rect x="1147" y="270" width="45" height="45" fill="#272424"/>
<rect x="1058" y="180" width="45" height="45" fill="#272424"/>
<rect x="315" y="360" width="45" height="45" fill="#272424"/>
<rect x="945" y="180" width="45" height="45" fill="#272424"/>
<rect x="518" y="900" width="45" height="45" fill="#272424"/>
<rect x="811" y="225" width="45" height="45" transform="rotate(180 811 225)" fill="#272424"/>
<rect x="765" y="855" width="45" height="45" fill="#272424"/>
<rect x="675" y="900" width="45" height="45" fill="#272424"/>
<rect x="270" y="765" width="45" height="45" fill="#272424"/>
<rect x="855" y="225" width="45" height="45" transform="rotate(180 855 225)" fill="#272424"/>
<rect x="855" y="270" width="45" height="45" transform="rotate(180 855 270)" fill="#272424"/>
<rect x="270" y="855" width="45" height="45" fill="#272424"/>
<rect x="1350" y="730" width="45" height="45" fill="#272424"/>
<rect x="1035" y="900" width="45" height="45" fill="#272424"/>
<rect x="586" y="225" width="45" height="45" transform="rotate(180 586 225)" fill="#272424"/>
<rect x="405" y="180" width="45" height="45" transform="rotate(90 405 180)" fill="#272424"/>
<rect x="315" y="900" width="45" height="45" transform="rotate(90 315 900)" fill="#272424"/>
<rect x="1350" y="810" width="45" height="45" fill="#272424"/>
<rect x="315" y="180" width="45" height="45" transform="rotate(90 315 180)" fill="#272424"/>
<rect x="1350" y="765" width="45" height="45" fill="#272424"/>
<rect x="1350" y="765" width="45" height="45" fill="#272424"/>
<rect x="360" y="180" width="45" height="45" transform="rotate(90 360 180)" fill="#272424"/>
<g filter="url(#filter0_d_0_1)">
<path d="M90 45H1530V1035H90V45Z" style="mix-blend-mode:exclusion" shape-rendering="crispEdges"/>
<path d="M136.292 44.5051C163.526 44.4921 199.225 44.506 226.356 44.5251C234.859 44.531 230.554 44.5575 236.423 44.5628C247.903 44.5731 258.598 44.5601 269.943 44.5724C273.702 44.5766 269.022 44.6186 272.965 44.622C294.568 44.6406 315.005 44.6299 336.889 44.6388C444.682 44.6828 550.641 44.6986 659.754 44.7177C695.731 44.724 739.466 44.7621 776.626 44.7454C780.964 44.7435 778.378 44.7066 779.203 44.7036C792.149 44.6571 787.844 44.7315 796.297 44.7414C829.843 44.7804 867.147 44.7838 899.432 44.7695C913.167 44.7634 899.396 44.6902 913.225 44.7313C914.186 44.7341 910.701 44.7732 914.467 44.7774C923.009 44.7867 939.216 44.7798 945.836 44.7829C958.595 44.789 960.706 44.7886 972.774 44.7891C989.271 44.79 1008.89 44.8095 1026.59 44.8006C1030.37 44.7986 1025.37 44.7585 1031.4 44.7517C1037.43 44.7449 1053.38 44.7483 1058.76 44.7577C1064.14 44.7672 1061.85 44.7987 1062.8 44.8059C1070.63 44.8669 1089.09 44.7824 1091.46 44.7804C1134.76 44.7448 1171.89 44.7929 1212.53 44.7927C1243.38 44.7925 1276.37 44.7766 1305.72 44.7788C1340.7 44.7816 1370.34 44.8033 1404.32 44.7996C1407.9 44.7992 1403.7 44.7521 1408.08 44.7515C1448.87 44.7467 1489.41 44.7501 1530 44.7724L1530.23 44.7724V45C1530.22 50.7137 1530.22 56.4285 1530.22 62.1451C1530.21 66.7914 1530.17 60.8035 1530.17 65.4452C1530.13 93.8655 1530.05 138.834 1530.23 155.714C1530.22 174.965 1530.22 198.337 1530.18 215.559C1530.16 226.664 1530.11 215.878 1530.13 229.519C1530.14 232.596 1530.18 228.595 1530.18 233.209C1530.19 252.634 1530.18 273.856 1530.2 293.073C1530.2 296.981 1530.24 295.914 1530.25 297.022C1530.3 306.329 1530.21 321.824 1530.21 325.202C1530.16 350.923 1530.18 369.707 1530.18 393.668C1530.18 399.228 1530.22 392.656 1530.23 398.006C1530.23 425.756 1530.23 454.503 1530.21 481.675C1530.2 487.719 1530.16 482.161 1530.16 485.049C1530.14 497.784 1530.22 500.607 1530.2 512.821C1530.2 515.396 1530.16 513.945 1530.16 514.415C1530.1 521.766 1530.18 528.154 1530.18 530.044C1530.21 553.962 1530.12 569.25 1530.13 592.355C1530.14 595.12 1530.18 588.886 1530.18 596.656C1530.19 648.422 1530.18 703.169 1530.15 754.409C1530.14 762.375 1530.11 756.689 1530.1 757.19C1530.04 765.36 1530.13 770.647 1530.13 773.245C1530.15 793.738 1530.08 812.882 1530.18 826.805C1530.15 896.446 1530.18 965.831 1530.15 1035V1035.15H1530C1512.97 1035.14 1495.95 1035.13 1478.94 1035.11C1477.84 1035.11 1479.81 1035.07 1477.62 1035.07C1451.33 1035.04 1456.38 1035.11 1438.99 1035.19C1434.6 1035.21 1421.27 1035.11 1420.09 1035.11C1415.8 1035.08 1420.25 1035.02 1418.82 1035.01C1406.91 1034.97 1408.85 1035.18 1392.79 1035.18C1392.28 1035.18 1394.39 1035.14 1393.05 1035.14C1388.86 1035.13 1384.7 1035.14 1380.61 1035.13C1371.22 1035.1 1367.88 1035 1353.56 1035.05C1351.74 1035.06 1354.51 1035.18 1340.17 1035.17C1334.45 1035.17 1309.15 1035.17 1302.05 1035.17C1294.97 1035.16 1299.83 1035.12 1299.33 1035.12C1280.24 1035.07 1287.48 1035.05 1277.92 1034.97C1268.35 1034.9 1271 1035.08 1267.11 1035.1C1263.2 1035.12 1249.21 1035.07 1245.77 1035.06C1242.33 1035.05 1246.62 1035.02 1243.56 1035.01C1223.3 1034.96 1234.67 1035.1 1227.99 1035.13C1212.24 1035.19 1199.98 1035.06 1185.57 1035.05C1181.67 1035.05 1184.85 1035.08 1181.38 1035.08C1167.63 1035.09 1159.36 1035.05 1143.71 1035.09C1141.15 1035.09 1128.5 1035.17 1120.31 1035.12C1119.15 1035.11 1122.45 1035.07 1116.58 1035.07C1107.83 1035.06 1092.05 1035.05 1082.64 1035.06C1075.69 1035.07 1083.66 1035.12 1074.91 1035.1C1071.02 1035.1 1078.23 1035.07 1070.92 1035.05C1063.66 1035.04 1045.08 1035.04 1038.01 1035.05C1030.96 1035.05 1034.82 1035.09 1034.25 1035.09C1030.8 1035.11 1017.26 1035.13 1016.06 1035.13C955.71 1035.13 900.054 1035.06 841.292 1035.08C836.681 1035.09 839.752 1035.13 839.049 1035.13C823.262 1035.15 835.709 1035.03 824.681 1035C826.275 1035.08 819.765 1035.07 808.644 1035.08C803.285 1035.08 806.204 1035.11 805.715 1035.12C797.768 1035.17 792.235 1035.1 790.809 1035.09C785.546 1035.04 779.819 1035.1 776.237 1035.07C772.658 1035.03 780.895 1034.98 770.23 1034.98C767.24 1035.02 775.158 1035.1 767.06 1035.11C736.509 1035.16 679.48 1035.1 654.915 1035.09C630.399 1035.08 622.481 1035.09 608.195 1035.08C582.391 1035.06 591.848 1035.12 575.825 1035.14C559.756 1035.17 567.568 1035.02 565.258 1034.99C562.991 1034.96 560.514 1034.99 557.694 1034.98C554.883 1034.96 560.969 1034.94 554.357 1034.93C547.741 1034.92 529.653 1034.98 527.308 1035.01C522.35 1035.08 530.501 1035.16 512.995 1035.13C511.989 1035.13 515.256 1035.09 511.401 1035.09C480.781 1035.06 448.971 1035.06 418.388 1035.03C414.184 1035.03 417.943 1034.98 415.496 1034.98C390.006 1034.95 399.118 1035.03 385.147 1035.11C388.284 1035 380.558 1034.93 361.213 1034.93C349.583 1034.93 351.585 1034.98 344.064 1035.01C341.807 1035.02 333.578 1034.99 332.087 1035.01C327.17 1035.08 334.921 1035.16 314.975 1035.13C314.1 1035.13 316.886 1035.09 313.863 1035.09C294.317 1035.07 291.979 1035.15 270.851 1035.16C254.291 1035.17 224.838 1035.12 205.982 1035.11C206.378 1034.99 188.567 1035.02 181.343 1035.1C169.105 1035.1 155.888 1035.1 144.06 1035.09C139.989 1035.09 142.664 1035.05 142.15 1035.05C134.279 1034.99 128.959 1035.07 126.318 1035.07C113.418 1035.09 101.596 1035.08 90 1035.08L89.9211 1035.08L89.9211 1035C89.926 1020.86 89.9297 1007.05 89.8966 992.043C89.8945 991.073 89.8102 989.502 89.8717 982.198C89.876 981.726 89.9143 990.75 89.9173 977.897C89.9202 965.043 89.9654 940.81 89.9263 922.965C89.917 918.646 89.8486 907.723 89.902 898.956C89.9093 897.788 89.9334 899.066 89.9469 897.38C89.9897 891.93 89.9045 888.954 89.9769 882.549C90.0492 876.143 90.1034 862.818 90.0535 844.821C90.052 844.248 89.9845 839.987 89.9856 834.328C89.9874 825.292 90.0014 812.467 90.001 803.033C90.0008 798.516 89.9589 801.407 89.9581 800.623C89.9346 770.252 89.972 748.637 89.9882 716.101C89.9912 710.137 89.9341 692.998 89.9793 681.451C90.0287 668.773 90.2345 681.801 90.1854 652.659C90.1658 640.905 89.9048 626.025 90.0401 604.902C90.0065 563.935 90.0758 526.05 90.0279 484.97C90.0258 483.123 89.9529 477.281 89.9539 472.938C89.9555 466.49 89.9896 462.951 89.9918 458.347C90.0021 439.056 89.973 421.403 89.9775 402.803C89.9791 395.742 90.0143 398.211 90.0163 389.788C90.0182 381.371 89.9719 375.759 89.9943 364.352C90.0113 355.738 90.1061 347.125 90.1171 335.69C90.0237 335.254 90.0256 327.401 90.0009 313.443C89.9961 310.76 89.9636 313.637 89.9597 312.367C89.9429 307.202 89.9699 302.422 89.9516 297.517C89.9472 296.324 89.9153 296.268 89.9099 295.293C89.8629 286.999 89.9347 273.334 89.9472 270.987C89.9947 261.993 89.9532 257.79 89.9719 250.891C89.9906 244.003 90.0139 254.302 90.0253 246.256C90.0487 229.578 90.0436 208.15 90.0451 191.212C90.0454 184.454 90.0028 189.065 90.0019 188.097C89.9911 174.123 90.0364 159.991 89.9516 152.242C90.171 142.553 89.9303 143.815 89.9742 123.84C89.9778 122.266 90.0815 120.265 90.0968 126.305C90.112 132.346 90.0795 141.506 90.1033 149.888C90.1089 151.872 90.2061 163.242 90.212 164.793C90.258 176.945 90.103 178.667 90.0944 179.31C90.0025 186.6 90.1073 200.494 90.1145 204.153C90.1477 220.891 90.1259 235.111 90.1496 249.111C90.1649 258.267 90.2664 259.163 90.2633 266.352C90.253 290.253 90.1113 298.596 90.2342 321.118C90.2604 325.947 90.3714 321.148 90.2841 338.453C90.2786 339.539 90.1988 352.387 90.2493 359.81C90.2557 360.742 90.288 360.713 90.2907 361.942C90.3083 370.182 90.2825 375.677 90.2949 384.653C90.3072 393.628 90.3256 404.421 90.3147 414.668C90.3081 420.844 90.2478 428.768 90.233 431.725C90.1905 440.072 90.2602 449.023 90.2088 454.194C90.157 459.409 90.0784 449.214 90.045 462.889C90.1291 463.396 90.2153 464.559 90.2999 465.374C90.2969 495.343 90.2697 524.831 90.2735 554.901C90.274 558.629 90.3192 554.816 90.3209 558.813C90.3281 575.674 90.2959 590.401 90.3087 607.887C90.3188 621.421 90.3667 636.263 90.3787 650.416C90.2825 659.061 90.3152 680.063 90.3064 695.319C90.3034 700.663 90.2777 700.306 90.2693 704.106C90.2383 718.445 90.3233 711.726 90.3367 715.656C90.3938 732.521 90.2014 733.965 90.2061 753.848C90.2063 754.901 90.3089 767.777 90.3153 769.551C90.3569 780.819 90.2796 771.416 90.272 778.468C90.2581 791.344 90.2336 800.292 90.2637 815.399C90.2726 819.804 90.3365 830.371 90.2871 838.925C90.2806 840.051 90.2467 839.429 90.2447 840.334C90.2116 856.73 90.3181 857.162 90.3542 866.531C90.3903 875.902 90.3167 890.375 90.2955 893.32C90.2407 901.026 90.2721 887.416 90.2667 886.998C90.2027 882.096 90.2137 892.652 90.2083 900.717C90.1039 901.885 90.1102 913.164 90.2031 909.079C90.2133 908.614 90.2036 902.337 90.2083 900.717C90.3108 907.797 90.3239 920.193 90.2282 933.885C90.1833 940.293 90.131 934.235 90.1501 953.703C90.1587 962.539 90.2307 959.125 90.2503 966.922C90.295 984.736 90.2279 1007.88 90.2385 1026.25C90.2423 1032.91 90.2817 1026.42 90.2857 1030.98C90.2869 1032.33 90.2876 1033.67 90.2879 1035L90 1034.71C100.479 1034.71 110.09 1034.73 120.867 1034.72C121.967 1034.72 119.279 1034.68 123.055 1034.67C151.676 1034.67 176.599 1034.7 206.482 1034.7C220.921 1034.7 246.735 1034.67 261.693 1034.68C287.616 1034.69 319.508 1034.75 341.653 1034.73C356.098 1034.72 352.929 1034.68 359.118 1034.65C371.061 1034.6 392.201 1034.7 395.047 1034.71C395.134 1034.71 382.705 1034.72 389.337 1034.74C393.193 1034.79 394.907 1034.71 395.047 1034.71C396.916 1034.72 421.745 1034.73 426.676 1034.72C429.355 1034.72 427.856 1034.68 429.252 1034.68C462.453 1034.64 495.711 1034.63 529.384 1034.65C529.977 1034.65 529.084 1034.7 530.478 1034.7C549.972 1034.72 562.454 1034.66 578.532 1034.63C594.607 1034.6 607.356 1034.61 616.872 1034.69C629.001 1034.68 646.403 1034.71 656.417 1034.73C666.43 1034.75 667.827 1034.66 668.708 1034.66C696.189 1034.61 712.075 1034.66 740.586 1034.67C754.14 1034.67 781.028 1034.66 795.704 1034.65C807.302 1034.64 814.29 1034.66 824.977 1034.65C826.423 1034.65 824.963 1034.61 825.404 1034.61C837.331 1034.56 831.599 1034.65 834.062 1034.67C842.99 1034.73 848.506 1034.76 863.781 1034.73C867.304 1034.73 877.566 1034.59 883.989 1034.59C892.339 1034.58 889.187 1034.62 897.93 1034.61C898.678 1034.61 898.522 1034.58 903.918 1034.58C928.966 1034.59 956.274 1034.61 982.303 1034.6C985.859 1034.6 981.3 1034.56 986.438 1034.56C1010.54 1034.55 1036.96 1034.55 1060.45 1034.57C1066.23 1034.58 1062.6 1034.61 1063.86 1034.62C1071.56 1034.68 1082.49 1034.59 1084.29 1034.59C1127.29 1034.55 1160.19 1034.63 1204.02 1034.59C1206.4 1034.59 1224.76 1034.5 1232.96 1034.58C1233.52 1034.58 1241.62 1034.66 1248.79 1034.61C1249.23 1034.6 1244.18 1034.56 1253 1034.57C1261.81 1034.57 1276 1034.54 1288.11 1034.59C1291.95 1034.6 1301.01 1034.68 1312.45 1034.62C1313.2 1034.62 1330.86 1034.47 1337.17 1034.57C1338.19 1034.59 1337.12 1034.69 1350.78 1034.64C1353.38 1034.63 1348.65 1034.6 1355.52 1034.59C1366.05 1034.57 1380.01 1034.6 1392.95 1034.55C1395.21 1034.54 1404.82 1034.47 1412.53 1034.52C1413.74 1034.53 1411.44 1034.57 1415.52 1034.57C1434.88 1034.59 1455.15 1034.57 1474.8 1034.59C1481.77 1034.6 1478.21 1034.66 1485.46 1034.67C1492.72 1034.69 1507.35 1034.7 1514.94 1034.67C1522.54 1034.65 1514.24 1034.56 1525.62 1034.55C1527.08 1034.55 1528.54 1034.55 1530 1034.55L1529.55 1035C1529.52 987.011 1529.57 939.434 1529.58 891.49C1529.58 884.162 1529.55 890.237 1529.55 879.439C1529.55 839.629 1529.52 770.896 1529.58 736.351C1529.64 708.673 1529.68 743.505 1529.7 722.354C1529.71 712.148 1529.61 701.106 1529.61 698.642C1529.57 674.573 1529.62 657.846 1529.6 636.183C1529.6 631.709 1529.56 636.097 1529.56 632.289C1529.55 619.285 1529.57 605.617 1529.57 593.19C1529.56 587.615 1529.53 588.642 1529.53 583.512C1529.54 571.237 1529.55 560.383 1529.58 548.417C1529.59 547.326 1529.63 554.68 1529.63 545.599C1529.63 530.901 1529.66 512.657 1529.63 495.746C1529.62 490.729 1529.55 490.532 1529.6 479.747C1529.61 477.484 1529.7 480.371 1529.62 467.807C1529.61 465.694 1529.5 444.59 1529.57 434.232C1529.59 431.5 1529.66 424.526 1529.65 418.492C1529.65 417.674 1529.61 420.952 1529.6 415.952C1529.59 398.331 1529.59 379.864 1529.58 361.761C1529.58 356.927 1529.54 364.127 1529.53 356.923C1529.52 337.11 1529.53 312.373 1529.55 292.999C1529.55 285.856 1529.59 290.793 1529.59 290.273C1529.65 281.915 1529.57 276.973 1529.56 274.2C1529.54 256.947 1529.57 243.809 1529.56 227.907C1529.56 223.518 1529.52 226.63 1529.52 225.756C1529.48 216.696 1529.55 223.445 1529.56 217.71C1529.58 201.644 1529.58 183.734 1529.58 167.486C1529.57 161.518 1529.53 168.226 1529.53 162.87C1529.52 131.171 1529.52 98.2169 1529.55 67.2806C1529.55 61.4555 1529.59 65.1204 1529.6 63.9064C1529.64 57.9788 1529.61 50.0962 1529.59 45L1530 45.412C1527.9 45.4209 1526.28 45.4289 1525.45 45.431C1512.62 45.4641 1507.64 45.4332 1496.31 45.439C1440.96 45.4677 1372.62 45.4472 1320.37 45.4346C1252.29 45.4183 1199.46 45.3851 1134.53 45.3937C1130.4 45.3942 1134.57 45.4407 1131.01 45.4417C1085.08 45.4529 1039.87 45.4348 993.853 45.4482C990.077 45.4492 995.521 45.4933 989.459 45.4964C977.028 45.5031 961.279 45.5007 948.71 45.4866C942.579 45.4799 950.802 45.442 944.631 45.436C930.262 45.4218 914.859 45.4187 900.099 45.4257C893.818 45.4288 903.295 45.4739 895.131 45.4744C839.518 45.4789 784.901 45.4867 728.702 45.4283C724.849 45.4243 721.469 45.3327 713.277 45.3502C712.66 45.3757 712.693 45.4056 712.424 45.4328C631.467 45.4474 551.335 45.4156 470.15 45.4107C466.728 45.4105 472.643 45.4591 466.016 45.4589C427.661 45.4582 390.416 45.4717 351.183 45.4234C347.29 45.4187 349.287 45.3333 337.816 45.3462C335.793 45.3486 318.515 45.36 314.048 45.3785C313.441 45.3813 316.594 45.4212 311.026 45.4223C278.673 45.4284 244.768 45.4193 212.47 45.3949C207.258 45.3909 212.809 45.3485 209.096 45.3452C182.761 45.3227 154.115 45.355 128.95 45.3164C112.106 45.2905 118.342 45.2171 109.391 45.1449C108.125 45.1347 97.6944 45.133 97.1549 45.091C95.7701 44.9853 100.822 44.8696 98.7493 44.757C98.3114 44.7327 84.3421 44.7588 92.6128 44.7002C93.1906 44.6963 103.318 44.6768 105.813 44.6569C107.55 44.6432 104.42 44.6004 107.963 44.5828C111.507 44.5653 115.4 44.6011 121.275 44.5804C127.147 44.5595 124.565 44.5108 136.292 44.5051ZM701.505 1034.82C710.776 1034.86 712.145 1034.71 702.116 1034.75C701.631 1034.75 701.026 1034.82 701.505 1034.82ZM90.1569 524.663C90.091 536.784 90.188 545.08 90.2389 536.528C90.2898 527.978 90.1769 520.97 90.1569 524.663ZM90.1088 398.965C90.0568 413.132 90.2688 415.363 90.226 400.189C90.2235 399.307 90.1118 398.137 90.1088 398.965ZM150.901 45.1243C150.773 45.1223 143.275 45.1204 143.096 45.1223C139.103 45.1698 154.096 45.1737 150.901 45.1243ZM90.0564 274.232C90.0277 278.654 90.0608 291.388 90.0965 285.893C90.1251 281.469 90.092 268.724 90.0564 274.232ZM1185.18 1034.98C1185.33 1034.98 1190.7 1034.98 1190.59 1034.97C1190.23 1034.93 1182.75 1034.94 1185.18 1034.98ZM90.0539 62.233C90.0459 93.5548 89.8708 112.546 89.8905 78.4365C89.8941 72.2597 89.9464 91.7487 89.9622 83.8871C89.9909 69.5018 89.881 59.9493 89.9399 45.2694C89.9507 42.6121 90.0548 60.4463 90.0542 62.2886C90.0541 62.2701 90.054 62.2516 90.0539 62.233ZM706.844 1035C707.029 1035 714.47 1035 714.649 1035C718.679 1034.95 703.688 1034.95 706.844 1035ZM1498.85 1035.07C1499.26 1035.08 1516.53 1035.08 1517.09 1035.08C1526.1 1035 1491.19 1034.99 1498.85 1035.07ZM205.685 1035.11C197.565 1035.16 187.852 1035.16 181.38 1035.1C189.449 1035.11 197.572 1035.11 205.685 1035.11Z" fill="#AF3B3B"/>
</g>
<path d="M270 182C270 180.895 270.895 180 272 180H1427C1428.1 180 1429 180.895 1429 182V944C1429 945.105 1428.1 946 1427 946H272C270.895 946 270 945.105 270 944V182Z"/>
<path d="M272 180V181H1427V180V179H272V180ZM1429 182H1428V944H1429H1430V182H1429ZM1427 946V945H272V946V947H1427V946ZM270 944H271V182H270H269V944H270ZM272 946V945C271.448 945 271 944.552 271 944H270H269C269 945.657 270.343 947 272 947V946ZM1429 944H1428C1428 944.552 1427.55 945 1427 945V946V947C1428.66 947 1430 945.657 1430 944H1429ZM1427 180V181C1427.55 181 1428 181.448 1428 182H1429H1430C1430 180.343 1428.66 179 1427 179V180ZM272 180V179C270.343 179 269 180.343 269 182H270H271C271 181.448 271.448 181 272 181V180Z" fill="white" fill-opacity="0.1"/>
<rect x="270" y="144" width="59.375" height="30" rx="3" fill="#444444"/>
<rect x="270.5" y="144.5" width="58.375" height="29" rx="2.5" stroke="white" stroke-opacity="0.0980392"/>
<path d="M281.344 156C281.297 155.604 281.107 155.297 280.773 155.078C280.44 154.859 280.031 154.75 279.547 154.75C279.193 154.75 278.883 154.807 278.617 154.922C278.354 155.036 278.148 155.194 278 155.395C277.854 155.595 277.781 155.823 277.781 156.078C277.781 156.292 277.832 156.475 277.934 156.629C278.038 156.78 278.171 156.906 278.332 157.008C278.493 157.107 278.663 157.189 278.84 157.254C279.017 157.316 279.18 157.367 279.328 157.406L280.141 157.625C280.349 157.68 280.581 157.755 280.836 157.852C281.094 157.948 281.34 158.079 281.574 158.246C281.811 158.41 282.007 158.621 282.16 158.879C282.314 159.137 282.391 159.453 282.391 159.828C282.391 160.26 282.277 160.651 282.051 161C281.827 161.349 281.499 161.626 281.066 161.832C280.637 162.038 280.115 162.141 279.5 162.141C278.927 162.141 278.431 162.048 278.012 161.863C277.595 161.678 277.267 161.421 277.027 161.09C276.79 160.759 276.656 160.375 276.625 159.938H277.625C277.651 160.24 277.753 160.49 277.93 160.687C278.109 160.883 278.336 161.029 278.609 161.125C278.885 161.219 279.182 161.266 279.5 161.266C279.87 161.266 280.202 161.206 280.496 161.086C280.79 160.964 281.023 160.794 281.195 160.578C281.367 160.359 281.453 160.104 281.453 159.812C281.453 159.547 281.379 159.331 281.23 159.164C281.082 158.997 280.887 158.862 280.645 158.758C280.402 158.654 280.141 158.562 279.859 158.484L278.875 158.203C278.25 158.023 277.755 157.767 277.391 157.434C277.026 157.1 276.844 156.664 276.844 156.125C276.844 155.677 276.965 155.286 277.207 154.953C277.452 154.617 277.78 154.357 278.191 154.172C278.605 153.984 279.068 153.891 279.578 153.891C280.094 153.891 280.552 153.983 280.953 154.168C281.354 154.35 281.672 154.6 281.906 154.918C282.143 155.236 282.268 155.596 282.281 156H281.344ZM286.374 162.125C285.796 162.125 285.297 161.997 284.878 161.742C284.461 161.484 284.14 161.125 283.913 160.664C283.689 160.201 283.577 159.661 283.577 159.047C283.577 158.432 283.689 157.891 283.913 157.422C284.14 156.951 284.455 156.583 284.858 156.32C285.265 156.055 285.739 155.922 286.28 155.922C286.593 155.922 286.901 155.974 287.206 156.078C287.511 156.182 287.788 156.352 288.038 156.586C288.288 156.818 288.487 157.125 288.636 157.508C288.784 157.891 288.858 158.362 288.858 158.922V159.312H284.233V158.516H287.921C287.921 158.177 287.853 157.875 287.718 157.609C287.585 157.344 287.395 157.134 287.147 156.98C286.903 156.827 286.614 156.75 286.28 156.75C285.913 156.75 285.595 156.841 285.327 157.023C285.062 157.203 284.857 157.437 284.714 157.727C284.571 158.016 284.499 158.326 284.499 158.656V159.188C284.499 159.641 284.577 160.025 284.733 160.34C284.892 160.652 285.112 160.891 285.394 161.055C285.675 161.216 286.002 161.297 286.374 161.297C286.616 161.297 286.835 161.263 287.03 161.195C287.228 161.125 287.399 161.021 287.542 160.883C287.685 160.742 287.796 160.568 287.874 160.359L288.765 160.609C288.671 160.911 288.513 161.177 288.292 161.406C288.071 161.633 287.797 161.81 287.472 161.937C287.146 162.063 286.78 162.125 286.374 162.125ZM292.698 162.125C292.136 162.125 291.651 161.992 291.245 161.727C290.839 161.461 290.526 161.095 290.308 160.629C290.089 160.163 289.979 159.63 289.979 159.031C289.979 158.422 290.091 157.884 290.315 157.418C290.542 156.949 290.857 156.583 291.261 156.32C291.667 156.055 292.141 155.922 292.683 155.922C293.104 155.922 293.485 156 293.823 156.156C294.162 156.312 294.439 156.531 294.655 156.812C294.871 157.094 295.006 157.422 295.058 157.797H294.136C294.065 157.523 293.909 157.281 293.667 157.07C293.427 156.857 293.104 156.75 292.698 156.75C292.339 156.75 292.024 156.844 291.753 157.031C291.485 157.216 291.275 157.478 291.124 157.816C290.976 158.152 290.901 158.547 290.901 159C290.901 159.464 290.974 159.867 291.12 160.211C291.269 160.555 291.477 160.822 291.745 161.012C292.016 161.202 292.334 161.297 292.698 161.297C292.938 161.297 293.155 161.255 293.351 161.172C293.546 161.089 293.711 160.969 293.847 160.812C293.982 160.656 294.078 160.469 294.136 160.25H295.058C295.006 160.604 294.877 160.923 294.671 161.207C294.468 161.488 294.198 161.712 293.862 161.879C293.529 162.043 293.141 162.125 292.698 162.125ZM299.015 156V156.781H295.905V156H299.015ZM296.812 154.562H297.733V160.281C297.733 160.542 297.771 160.737 297.847 160.867C297.925 160.995 298.024 161.081 298.144 161.125C298.266 161.167 298.395 161.187 298.53 161.187C298.632 161.187 298.715 161.182 298.78 161.172C298.845 161.159 298.897 161.148 298.937 161.141L299.124 161.969C299.062 161.992 298.974 162.016 298.862 162.039C298.75 162.065 298.608 162.078 298.437 162.078C298.176 162.078 297.921 162.022 297.671 161.91C297.424 161.798 297.218 161.628 297.054 161.398C296.892 161.169 296.812 160.88 296.812 160.531V154.562ZM300.401 162V156H301.323V162H300.401ZM300.87 155C300.69 155 300.535 154.939 300.405 154.816C300.278 154.694 300.214 154.547 300.214 154.375C300.214 154.203 300.278 154.056 300.405 153.934C300.535 153.811 300.69 153.75 300.87 153.75C301.05 153.75 301.203 153.811 301.331 153.934C301.461 154.056 301.526 154.203 301.526 154.375C301.526 154.547 301.461 154.694 301.331 154.816C301.203 154.939 301.05 155 300.87 155ZM305.449 162.125C304.908 162.125 304.432 161.996 304.023 161.738C303.617 161.48 303.299 161.12 303.07 160.656C302.844 160.193 302.73 159.651 302.73 159.031C302.73 158.406 302.844 157.861 303.07 157.395C303.299 156.928 303.617 156.566 304.023 156.309C304.432 156.051 304.908 155.922 305.449 155.922C305.991 155.922 306.465 156.051 306.871 156.309C307.28 156.566 307.598 156.928 307.824 157.395C308.053 157.861 308.168 158.406 308.168 159.031C308.168 159.651 308.053 160.193 307.824 160.656C307.598 161.12 307.28 161.48 306.871 161.738C306.465 161.996 305.991 162.125 305.449 162.125ZM305.449 161.297C305.861 161.297 306.199 161.191 306.465 160.98C306.73 160.77 306.927 160.492 307.055 160.148C307.182 159.805 307.246 159.432 307.246 159.031C307.246 158.63 307.182 158.257 307.055 157.91C306.927 157.564 306.73 157.284 306.465 157.07C306.199 156.857 305.861 156.75 305.449 156.75C305.038 156.75 304.699 156.857 304.434 157.07C304.168 157.284 303.971 157.564 303.844 157.91C303.716 158.257 303.652 158.63 303.652 159.031C303.652 159.432 303.716 159.805 303.844 160.148C303.971 160.492 304.168 160.77 304.434 160.98C304.699 161.191 305.038 161.297 305.449 161.297ZM310.497 158.391V162H309.575V156H310.466V156.937H310.544C310.685 156.633 310.898 156.388 311.185 156.203C311.471 156.016 311.841 155.922 312.294 155.922C312.7 155.922 313.056 156.005 313.36 156.172C313.665 156.336 313.902 156.586 314.071 156.922C314.241 157.255 314.325 157.677 314.325 158.188V162H313.403V158.25C313.403 157.779 313.281 157.411 313.036 157.148C312.791 156.883 312.455 156.75 312.028 156.75C311.734 156.75 311.471 156.814 311.239 156.941C311.01 157.069 310.829 157.255 310.696 157.5C310.563 157.745 310.497 158.042 310.497 158.391ZM321.9 154V162H320.932V155.016H320.885L318.932 156.312V155.328L320.932 154H321.9Z" fill="white"/>
<defs>
<filter id="filter0_d_0_1" x="85.8493" y="44.5" width="1448.41" height="998.692" filterUnits="userSpaceOnUse" color-interpolation-filters="sRGB">
<feFlood flood-opacity="0" result="BackgroundImageFix"/>
<feColorMatrix in="SourceAlpha" type="matrix" values="0 0 0 0 0 0 0 0 0 0 0 0 0 0 0 0 0 0 127 0" result="hardAlpha"/>
<feOffset dy="4"/>
<feGaussianBlur stdDeviation="2"/>
<feComposite in2="hardAlpha" operator="out"/>
<feColorMatrix type="matrix" values="0 0 0 0 0 0 0 0 0 0 0 0 0 0 0 0 0 0 0.25 0"/>
<feBlend mode="normal" in2="BackgroundImageFix" result="effect1_dropShadow_0_1"/>
<feBlend mode="normal" in="SourceGraphic" in2="effect1_dropShadow_0_1" result="shape"/>
</filter>
</defs>
</svg>
