<svg width="1728" height="1117" viewBox="0 0 1728 1117" fill="none" xmlns="http://www.w3.org/2000/svg" xmlns:xlink="http://www.w3.org/1999/xlink">
<rect width="1728" height="1117" fill="#272424"/>
<rect width="1728" height="1117" fill="#272424"/>
<rect x="270" y="180" width="1125" height="765" fill="#D9D9D9"/>
<rect x="1260" y="180" width="45" height="45" fill="#272424"/>
<rect x="1350" y="180" width="45" height="45" fill="#272424"/>
<rect x="1350" y="270" width="45" height="45" fill="#272424"/>
<rect x="1305" y="225" width="45" height="45" fill="#272424"/>
<rect x="1305" y="360" width="45" height="45" fill="#272424"/>
<rect x="270" y="270" width="45" height="45" fill="#272424"/>
<rect x="1350" y="360" width="45" height="45" fill="#272424"/>
<rect x="1350" y="472" width="45" height="45" fill="#272424"/>
<rect x="1305" y="517" width="45" height="45" fill="#272424"/>
<rect x="1350" y="514" width="45" height="45" fill="#272424"/>
<rect x="315" y="225" width="45" height="45" fill="#272424"/>
<rect x="315" y="315" width="45" height="45" fill="#272424"/>
<rect x="1350" y="630" width="45" height="45" fill="#272424"/>
<rect x="270" y="540" width="45" height="45" fill="#272424"/>
<rect x="1350" y="900" width="45" height="45" fill="#272424"/>
<rect x="1260" y="900" width="45" height="45" fill="#272424"/>
<rect x="1125" y="855" width="45" height="45" fill="#272424"/>
<rect x="496" y="270" width="45" height="45" transform="rotate(180 496 270)" fill="#272424"/>
<rect x="360" y="630" width="45" height="45" transform="rotate(180 360 630)" fill="#272424"/>
<rect x="1080" y="900" width="45" height="45" fill="#272424"/>
<rect x="945" y="900" width="45" height="45" fill="#272424"/>
<rect x="450" y="900" width="45" height="45" fill="#272424"/>
<rect x="676" y="225" width="45" height="45" transform="rotate(180 676 225)" fill="#272424"/>
<rect x="810" y="900" width="45" height="45" fill="#272424"/>
<rect x="315" y="900" width="45" height="45" fill="#272424"/>
<rect x="855" y="900" width="45" height="45" fill="#272424"/>
<rect x="900" y="900" width="45" height="45" fill="#272424"/>
<rect x="900" y="855" width="45" height="45" fill="#272424"/>
<rect x="587" y="225" width="45" height="45" fill="#272424"/>
<rect x="1102" y="225" width="45" height="45" fill="#272424"/>
<rect x="1147" y="180" width="45" height="45" fill="#272424"/>
<rect x="1147" y="225" width="45" height="45" fill="#272424"/>
<rect x="1147" y="270" width="45" height="45" fill="#272424"/>
<rect x="1058" y="180" width="45" height="45" fill="#272424"/>
<rect x="315" y="360" width="45" height="45" fill="#272424"/>
<rect x="945" y="180" width="45" height="45" fill="#272424"/>
<rect x="518" y="900" width="45" height="45" fill="#272424"/>
<rect x="811" y="225" width="45" height="45" transform="rotate(180 811 225)" fill="#272424"/>
<rect x="765" y="855" width="45" height="45" fill="#272424"/>
<rect x="675" y="900" width="45" height="45" fill="#272424"/>
<rect x="270" y="765" width="45" height="45" fill="#272424"/>
<rect x="855" y="225" width="45" height="45" transform="rotate(180 855 225)" fill="#272424"/>
<rect x="855" y="270" width="45" height="45" transform="rotate(180 855 270)" fill="#272424"/>
<rect x="270" y="855" width="45" height="45" fill="#272424"/>
<rect x="1350" y="730" width="45" height="45" fill="#272424"/>
<rect x="1035" y="900" width="45" height="45" fill="#272424"/>
<rect x="586" y="225" width="45" height="45" transform="rotate(180 586 225)" fill="#272424"/>
<rect x="405" y="180" width="45" height="45" transform="rotate(90 405 180)" fill="#272424"/>
<rect x="315" y="900" width="45" height="45" transform="rotate(90 315 900)" fill="#272424"/>
<rect x="1350" y="810" width="45" height="45" fill="#272424"/>
<rect x="315" y="180" width="45" height="45" transform="rotate(90 315 180)" fill="#272424"/>
<rect x="1350" y="765" width="45" height="45" fill="#272424"/>
<rect x="1350" y="765" width="45" height="45" fill="#272424"/>
<rect x="360" y="180" width="45" height="45" transform="rotate(90 360 180)" fill="#272424"/>
<g filter="url(#filter0_d_0_1)">
<path d="M90 45H1530V1035H90V45Z" style="mix-blend-mode:exclusion" shape-rendering="crispEdges"/>
<path d="M136.292 44.5051C163.526 44.4921 199.225 44.506 226.356 44.5251C234.859 44.531 230.554 44.5575 236.423 44.5628C247.903 44.5731 258.598 44.5601 269.943 44.5724C273.702 44.5766 269.022 44.6186 272.965 44.622C294.568 44.6406 315.005 44.6299 336.889 44.6388C444.682 44.6828 550.641 44.6986 659.754 44.7177C695.731 44.724 739.466 44.7621 776.626 44.7454C780.964 44.7435 778.378 44.7066 779.203 44.7036C792.149 44.6571 787.844 44.7315 796.297 44.7414C829.843 44.7804 867.147 44.7838 899.432 44.7695C913.167 44.7634 899.396 44.6902 913.225 44.7313C914.186 44.7341 910.701 44.7732 914.467 44.7774C923.009 44.7867 939.216 44.7798 945.836 44.7829C958.595 44.789 960.706 44.7886 972.774 44.7891C989.271 44.79 1008.89 44.8095 1026.59 44.8006C1030.37 44.7986 1025.37 44.7585 1031.4 44.7517C1037.43 44.7449 1053.38 44.7483 1058.76 44.7577C1064.14 44.7672 1061.85 44.7987 1062.8 44.8059C1070.63 44.8669 1089.09 44.7824 1091.46 44.7804C1134.76 44.7448 1171.89 44.7929 1212.53 44.7927C1243.38 44.7925 1276.37 44.7766 1305.72 44.7788C1340.7 44.7816 1370.34 44.8033 1404.32 44.7996C1407.9 44.7992 1403.7 44.7521 1408.08 44.7515C1448.87 44.7467 1489.41 44.7501 1530 44.7724L1530.23 44.7724V45C1530.22 50.7137 1530.22 56.4285 1530.22 62.1451C1530.21 66.7914 1530.17 60.8035 1530.17 65.4452C1530.13 93.8655 1530.05 138.834 1530.23 155.714C1530.22 174.965 1530.22 198.337 1530.18 215.559C1530.16 226.664 1530.11 215.878 1530.13 229.519C1530.14 232.596 1530.18 228.595 1530.18 233.209C1530.19 252.634 1530.18 273.856 1530.2 293.073C1530.2 296.981 1530.24 295.914 1530.25 297.022C1530.3 306.329 1530.21 321.824 1530.21 325.202C1530.16 350.923 1530.18 369.707 1530.18 393.668C1530.18 399.228 1530.22 392.656 1530.23 398.006C1530.23 425.756 1530.23 454.503 1530.21 481.675C1530.2 487.719 1530.16 482.161 1530.16 485.049C1530.14 497.784 1530.22 500.607 1530.2 512.821C1530.2 515.396 1530.16 513.945 1530.16 514.415C1530.1 521.766 1530.18 528.154 1530.18 530.044C1530.21 553.962 1530.12 569.25 1530.13 592.355C1530.14 595.12 1530.18 588.886 1530.18 596.656C1530.19 648.422 1530.18 703.169 1530.15 754.409C1530.14 762.375 1530.11 756.689 1530.1 757.19C1530.04 765.36 1530.13 770.647 1530.13 773.245C1530.15 793.738 1530.08 812.882 1530.18 826.805C1530.15 896.446 1530.18 965.831 1530.15 1035V1035.15H1530C1512.97 1035.14 1495.95 1035.13 1478.94 1035.11C1477.84 1035.11 1479.81 1035.07 1477.62 1035.07C1451.33 1035.04 1456.38 1035.11 1438.99 1035.19C1434.6 1035.21 1421.27 1035.11 1420.09 1035.11C1415.8 1035.08 1420.25 1035.02 1418.82 1035.01C1406.91 1034.97 1408.85 1035.18 1392.79 1035.18C1392.28 1035.18 1394.39 1035.14 1393.05 1035.14C1388.86 1035.13 1384.7 1035.14 1380.61 1035.13C1371.22 1035.1 1367.88 1035 1353.56 1035.05C1351.74 1035.06 1354.51 1035.18 1340.17 1035.17C1334.45 1035.17 1309.15 1035.17 1302.05 1035.17C1294.97 1035.16 1299.83 1035.12 1299.33 1035.12C1280.24 1035.07 1287.48 1035.05 1277.92 1034.97C1268.35 1034.9 1271 1035.08 1267.11 1035.1C1263.2 1035.12 1249.21 1035.07 1245.77 1035.06C1242.33 1035.05 1246.62 1035.02 1243.56 1035.01C1223.3 1034.96 1234.67 1035.1 1227.99 1035.13C1212.24 1035.19 1199.98 1035.06 1185.57 1035.05C1181.67 1035.05 1184.85 1035.08 1181.38 1035.08C1167.63 1035.09 1159.36 1035.05 1143.71 1035.09C1141.15 1035.09 1128.5 1035.17 1120.31 1035.12C1119.15 1035.11 1122.45 1035.07 1116.58 1035.07C1107.83 1035.06 1092.05 1035.05 1082.64 1035.06C1075.69 1035.07 1083.66 1035.12 1074.91 1035.1C1071.02 1035.1 1078.23 1035.07 1070.92 1035.05C1063.66 1035.04 1045.08 1035.04 1038.01 1035.05C1030.96 1035.05 1034.82 1035.09 1034.25 1035.09C1030.8 1035.11 1017.26 1035.13 1016.06 1035.13C955.71 1035.13 900.054 1035.06 841.292 1035.08C836.681 1035.09 839.752 1035.13 839.049 1035.13C823.262 1035.15 835.709 1035.03 824.681 1035C826.275 1035.08 819.765 1035.07 808.644 1035.08C803.285 1035.08 806.204 1035.11 805.715 1035.12C797.768 1035.17 792.235 1035.1 790.809 1035.09C785.546 1035.04 779.819 1035.1 776.237 1035.07C772.658 1035.03 780.895 1034.98 770.23 1034.98C767.24 1035.02 775.158 1035.1 767.06 1035.11C736.509 1035.16 679.48 1035.1 654.915 1035.09C630.399 1035.08 622.481 1035.09 608.195 1035.08C582.391 1035.06 591.848 1035.12 575.825 1035.14C559.756 1035.17 567.568 1035.02 565.258 1034.99C562.991 1034.96 560.514 1034.99 557.694 1034.98C554.883 1034.96 560.969 1034.94 554.357 1034.93C547.741 1034.92 529.653 1034.98 527.308 1035.01C522.35 1035.08 530.501 1035.16 512.995 1035.13C511.989 1035.13 515.256 1035.09 511.401 1035.09C480.781 1035.06 448.971 1035.06 418.388 1035.03C414.184 1035.03 417.943 1034.98 415.496 1034.98C390.006 1034.95 399.118 1035.03 385.147 1035.11C388.284 1035 380.558 1034.93 361.213 1034.93C349.583 1034.93 351.585 1034.98 344.064 1035.01C341.807 1035.02 333.578 1034.99 332.087 1035.01C327.17 1035.08 334.921 1035.16 314.975 1035.13C314.1 1035.13 316.886 1035.09 313.863 1035.09C294.317 1035.07 291.979 1035.15 270.851 1035.16C254.291 1035.17 224.838 1035.12 205.982 1035.11C206.378 1034.99 188.567 1035.02 181.343 1035.1C169.105 1035.1 155.888 1035.1 144.06 1035.09C139.989 1035.09 142.664 1035.05 142.15 1035.05C134.279 1034.99 128.959 1035.07 126.318 1035.07C113.418 1035.09 101.596 1035.08 90 1035.08L89.9211 1035.08L89.9211 1035C89.926 1020.86 89.9297 1007.05 89.8966 992.043C89.8945 991.073 89.8102 989.502 89.8717 982.198C89.876 981.726 89.9143 990.75 89.9173 977.897C89.9202 965.043 89.9654 940.81 89.9263 922.965C89.917 918.646 89.8486 907.723 89.902 898.956C89.9093 897.788 89.9334 899.066 89.9469 897.38C89.9897 891.93 89.9045 888.954 89.9769 882.549C90.0492 876.143 90.1034 862.818 90.0535 844.821C90.052 844.248 89.9845 839.987 89.9856 834.328C89.9874 825.292 90.0014 812.467 90.001 803.033C90.0008 798.516 89.9589 801.407 89.9581 800.623C89.9346 770.252 89.972 748.637 89.9882 716.101C89.9912 710.137 89.9341 692.998 89.9793 681.451C90.0287 668.773 90.2345 681.801 90.1854 652.659C90.1658 640.905 89.9048 626.025 90.0401 604.902C90.0065 563.935 90.0758 526.05 90.0279 484.97C90.0258 483.123 89.9529 477.281 89.9539 472.938C89.9555 466.49 89.9896 462.951 89.9918 458.347C90.0021 439.056 89.973 421.403 89.9775 402.803C89.9791 395.742 90.0143 398.211 90.0163 389.788C90.0182 381.371 89.9719 375.759 89.9943 364.352C90.0113 355.738 90.1061 347.125 90.1171 335.69C90.0237 335.254 90.0256 327.401 90.0009 313.443C89.9961 310.76 89.9636 313.637 89.9597 312.367C89.9429 307.202 89.9699 302.422 89.9516 297.517C89.9472 296.324 89.9153 296.268 89.9099 295.293C89.8629 286.999 89.9347 273.334 89.9472 270.987C89.9947 261.993 89.9532 257.79 89.9719 250.891C89.9906 244.003 90.0139 254.302 90.0253 246.256C90.0487 229.578 90.0436 208.15 90.0451 191.212C90.0454 184.454 90.0028 189.065 90.0019 188.097C89.9911 174.123 90.0364 159.991 89.9516 152.242C90.171 142.553 89.9303 143.815 89.9742 123.84C89.9778 122.266 90.0815 120.265 90.0968 126.305C90.112 132.346 90.0795 141.506 90.1033 149.888C90.1089 151.872 90.2061 163.242 90.212 164.793C90.258 176.945 90.103 178.667 90.0944 179.31C90.0025 186.6 90.1073 200.494 90.1145 204.153C90.1477 220.891 90.1259 235.111 90.1496 249.111C90.1649 258.267 90.2664 259.163 90.2633 266.352C90.253 290.253 90.1113 298.596 90.2342 321.118C90.2604 325.947 90.3714 321.148 90.2841 338.453C90.2786 339.539 90.1988 352.387 90.2493 359.81C90.2557 360.742 90.288 360.713 90.2907 361.942C90.3083 370.182 90.2825 375.677 90.2949 384.653C90.3072 393.628 90.3256 404.421 90.3147 414.668C90.3081 420.844 90.2478 428.768 90.233 431.725C90.1905 440.072 90.2602 449.023 90.2088 454.194C90.157 459.409 90.0784 449.214 90.045 462.889C90.1291 463.396 90.2153 464.559 90.2999 465.374C90.2969 495.343 90.2697 524.831 90.2735 554.901C90.274 558.629 90.3192 554.816 90.3209 558.813C90.3281 575.674 90.2959 590.401 90.3087 607.887C90.3188 621.421 90.3667 636.263 90.3787 650.416C90.2825 659.061 90.3152 680.063 90.3064 695.319C90.3034 700.663 90.2777 700.306 90.2693 704.106C90.2383 718.445 90.3233 711.726 90.3367 715.656C90.3938 732.521 90.2014 733.965 90.2061 753.848C90.2063 754.901 90.3089 767.777 90.3153 769.551C90.3569 780.819 90.2796 771.416 90.272 778.468C90.2581 791.344 90.2336 800.292 90.2637 815.399C90.2726 819.804 90.3365 830.371 90.2871 838.925C90.2806 840.051 90.2467 839.429 90.2447 840.334C90.2116 856.73 90.3181 857.162 90.3542 866.531C90.3903 875.902 90.3167 890.375 90.2955 893.32C90.2407 901.026 90.2721 887.416 90.2667 886.998C90.2027 882.096 90.2137 892.652 90.2083 900.717C90.1039 901.885 90.1102 913.164 90.2031 909.079C90.2133 908.614 90.2036 902.337 90.2083 900.717C90.3108 907.797 90.3239 920.193 90.2282 933.885C90.1833 940.293 90.131 934.235 90.1501 953.703C90.1587 962.539 90.2307 959.125 90.2503 966.922C90.295 984.736 90.2279 1007.88 90.2385 1026.25C90.2423 1032.91 90.2817 1026.42 90.2857 1030.98C90.2869 1032.33 90.2876 1033.67 90.2879 1035L90 1034.71C100.479 1034.71 110.09 1034.73 120.867 1034.72C121.967 1034.72 119.279 1034.68 123.055 1034.67C151.676 1034.67 176.599 1034.7 206.482 1034.7C220.921 1034.7 246.735 1034.67 261.693 1034.68C287.616 1034.69 319.508 1034.75 341.653 1034.73C356.098 1034.72 352.929 1034.68 359.118 1034.65C371.061 1034.6 392.201 1034.7 395.047 1034.71C395.134 1034.71 382.705 1034.72 389.337 1034.74C393.193 1034.79 394.907 1034.71 395.047 1034.71C396.916 1034.72 421.745 1034.73 426.676 1034.72C429.355 1034.72 427.856 1034.68 429.252 1034.68C462.453 1034.64 495.711 1034.63 529.384 1034.65C529.977 1034.65 529.084 1034.7 530.478 1034.7C549.972 1034.72 562.454 1034.66 578.532 1034.63C594.607 1034.6 607.356 1034.61 616.872 1034.69C629.001 1034.68 646.403 1034.71 656.417 1034.73C666.43 1034.75 667.827 1034.66 668.708 1034.66C696.189 1034.61 712.075 1034.66 740.586 1034.67C754.14 1034.67 781.028 1034.66 795.704 1034.65C807.302 1034.64 814.29 1034.66 824.977 1034.65C826.423 1034.65 824.963 1034.61 825.404 1034.61C837.331 1034.56 831.599 1034.65 834.062 1034.67C842.99 1034.73 848.506 1034.76 863.781 1034.73C867.304 1034.73 877.566 1034.59 883.989 1034.59C892.339 1034.58 889.187 1034.62 897.93 1034.61C898.678 1034.61 898.522 1034.58 903.918 1034.58C928.966 1034.59 956.274 1034.61 982.303 1034.6C985.859 1034.6 981.3 1034.56 986.438 1034.56C1010.54 1034.55 1036.96 1034.55 1060.45 1034.57C1066.23 1034.58 1062.6 1034.61 1063.86 1034.62C1071.56 1034.68 1082.49 1034.59 1084.29 1034.59C1127.29 1034.55 1160.19 1034.63 1204.02 1034.59C1206.4 1034.59 1224.76 1034.5 1232.96 1034.58C1233.52 1034.58 1241.62 1034.66 1248.79 1034.61C1249.23 1034.6 1244.18 1034.56 1253 1034.57C1261.81 1034.57 1276 1034.54 1288.11 1034.59C1291.95 1034.6 1301.01 1034.68 1312.45 1034.62C1313.2 1034.62 1330.86 1034.47 1337.17 1034.57C1338.19 1034.59 1337.12 1034.69 1350.78 1034.64C1353.38 1034.63 1348.65 1034.6 1355.52 1034.59C1366.05 1034.57 1380.01 1034.6 1392.95 1034.55C1395.21 1034.54 1404.82 1034.47 1412.53 1034.52C1413.74 1034.53 1411.44 1034.57 1415.52 1034.57C1434.88 1034.59 1455.15 1034.57 1474.8 1034.59C1481.77 1034.6 1478.21 1034.66 1485.46 1034.67C1492.72 1034.69 1507.35 1034.7 1514.94 1034.67C1522.54 1034.65 1514.24 1034.56 1525.62 1034.55C1527.08 1034.55 1528.54 1034.55 1530 1034.55L1529.55 1035C1529.52 987.011 1529.57 939.434 1529.58 891.49C1529.58 884.162 1529.55 890.237 1529.55 879.439C1529.55 839.629 1529.52 770.896 1529.58 736.351C1529.64 708.673 1529.68 743.505 1529.7 722.354C1529.71 712.148 1529.61 701.106 1529.61 698.642C1529.57 674.573 1529.62 657.846 1529.6 636.183C1529.6 631.709 1529.56 636.097 1529.56 632.289C1529.55 619.285 1529.57 605.617 1529.57 593.19C1529.56 587.615 1529.53 588.642 1529.53 583.512C1529.54 571.237 1529.55 560.383 1529.58 548.417C1529.59 547.326 1529.63 554.68 1529.63 545.599C1529.63 530.901 1529.66 512.657 1529.63 495.746C1529.62 490.729 1529.55 490.532 1529.6 479.747C1529.61 477.484 1529.7 480.371 1529.62 467.807C1529.61 465.694 1529.5 444.59 1529.57 434.232C1529.59 431.5 1529.66 424.526 1529.65 418.492C1529.65 417.674 1529.61 420.952 1529.6 415.952C1529.59 398.331 1529.59 379.864 1529.58 361.761C1529.58 356.927 1529.54 364.127 1529.53 356.923C1529.52 337.11 1529.53 312.373 1529.55 292.999C1529.55 285.856 1529.59 290.793 1529.59 290.273C1529.65 281.915 1529.57 276.973 1529.56 274.2C1529.54 256.947 1529.57 243.809 1529.56 227.907C1529.56 223.518 1529.52 226.63 1529.52 225.756C1529.48 216.696 1529.55 223.445 1529.56 217.71C1529.58 201.644 1529.58 183.734 1529.58 167.486C1529.57 161.518 1529.53 168.226 1529.53 162.87C1529.52 131.171 1529.52 98.2169 1529.55 67.2806C1529.55 61.4555 1529.59 65.1204 1529.6 63.9064C1529.64 57.9788 1529.61 50.0962 1529.59 45L1530 45.412C1527.9 45.4209 1526.28 45.4289 1525.45 45.431C1512.62 45.4641 1507.64 45.4332 1496.31 45.439C1440.96 45.4677 1372.62 45.4472 1320.37 45.4346C1252.29 45.4183 1199.46 45.3851 1134.53 45.3937C1130.4 45.3942 1134.57 45.4407 1131.01 45.4417C1085.08 45.4529 1039.87 45.4348 993.853 45.4482C990.077 45.4492 995.521 45.4933 989.459 45.4964C977.028 45.5031 961.279 45.5007 948.71 45.4866C942.579 45.4799 950.802 45.442 944.631 45.436C930.262 45.4218 914.859 45.4187 900.099 45.4257C893.818 45.4288 903.295 45.4739 895.131 45.4744C839.518 45.4789 784.901 45.4867 728.702 45.4283C724.849 45.4243 721.469 45.3327 713.277 45.3502C712.66 45.3757 712.693 45.4056 712.424 45.4328C631.467 45.4474 551.335 45.4156 470.15 45.4107C466.728 45.4105 472.643 45.4591 466.016 45.4589C427.661 45.4582 390.416 45.4717 351.183 45.4234C347.29 45.4187 349.287 45.3333 337.816 45.3462C335.793 45.3486 318.515 45.36 314.048 45.3785C313.441 45.3813 316.594 45.4212 311.026 45.4223C278.673 45.4284 244.768 45.4193 212.47 45.3949C207.258 45.3909 212.809 45.3485 209.096 45.3452C182.761 45.3227 154.115 45.355 128.95 45.3164C112.106 45.2905 118.342 45.2171 109.391 45.1449C108.125 45.1347 97.6944 45.133 97.1549 45.091C95.7701 44.9853 100.822 44.8696 98.7493 44.757C98.3114 44.7327 84.3421 44.7588 92.6128 44.7002C93.1906 44.6963 103.318 44.6768 105.813 44.6569C107.55 44.6432 104.42 44.6004 107.963 44.5828C111.507 44.5653 115.4 44.6011 121.275 44.5804C127.147 44.5595 124.565 44.5108 136.292 44.5051ZM701.505 1034.82C710.776 1034.86 712.145 1034.71 702.116 1034.75C701.631 1034.75 701.026 1034.82 701.505 1034.82ZM90.1569 524.663C90.091 536.784 90.188 545.08 90.2389 536.528C90.2898 527.978 90.1769 520.97 90.1569 524.663ZM90.1088 398.965C90.0568 413.132 90.2688 415.363 90.226 400.189C90.2235 399.307 90.1118 398.137 90.1088 398.965ZM150.901 45.1243C150.773 45.1223 143.275 45.1204 143.096 45.1223C139.103 45.1698 154.096 45.1737 150.901 45.1243ZM90.0564 274.232C90.0277 278.654 90.0608 291.388 90.0965 285.893C90.1251 281.469 90.092 268.724 90.0564 274.232ZM1185.18 1034.98C1185.33 1034.98 1190.7 1034.98 1190.59 1034.97C1190.23 1034.93 1182.75 1034.94 1185.18 1034.98ZM90.0539 62.233C90.0459 93.5548 89.8708 112.546 89.8905 78.4365C89.8941 72.2597 89.9464 91.7487 89.9622 83.8871C89.9909 69.5018 89.881 59.9493 89.9399 45.2694C89.9507 42.6121 90.0548 60.4463 90.0542 62.2886C90.0541 62.2701 90.054 62.2516 90.0539 62.233ZM706.844 1035C707.029 1035 714.47 1035 714.649 1035C718.679 1034.95 703.688 1034.95 706.844 1035ZM1498.85 1035.07C1499.26 1035.08 1516.53 1035.08 1517.09 1035.08C1526.1 1035 1491.19 1034.99 1498.85 1035.07ZM205.685 1035.11C197.565 1035.16 187.852 1035.16 181.38 1035.1C189.449 1035.11 197.572 1035.11 205.685 1035.11Z" fill="#AF3B3B"/>
</g>
<defs>
<filter id="filter0_d_0_1" x="85.8493" y="44.5" width="1448.41" height="998.692" filterUnits="userSpaceOnUse" color-interpolation-filters="sRGB">
<feFlood flood-opacity="0" result="BackgroundImageFix"/>
<feColorMatrix in="SourceAlpha" type="matrix" values="0 0 0 0 0 0 0 0 0 0 0 0 0 0 0 0 0 0 127 0" result="hardAlpha"/>
<feOffset dy="4"/>
<feGaussianBlur stdDeviation="2"/>
<feComposite in2="hardAlpha" operator="out"/>
<feColorMatrix type="matrix" values="0 0 0 0 0 0 0 0 0 0 0 0 0 0 0 0 0 0 0.25 0"/>
<feBlend mode="normal" in2="BackgroundImageFix" result="effect1_dropShadow_0_1"/>
<feBlend mode="normal" in="SourceGraphic" in2="effect1_dropShadow_0_1" result="shape"/>
</filter>
</defs>
</svg>
