<svg width="1728" height="1117" viewBox="0 0 1728 1117" fill="none" xmlns="http://www.w3.org/2000/svg">
<rect width="1728" height="1117" fill="#272424"/>
<rect width="1728" height="1117" fill="#272424"/>
<rect x="270" y="180" width="1125" height="765" fill="#D9D9D9"/>
<rect x="1260" y="180" width="45" height="45" fill="#272424"/>
<rect x="1350" y="180" width="45" height="45" fill="#272424"/>
<rect x="1350" y="270" width="45" height="45" fill="#272424"/>
<rect x="1305" y="225" width="45" height="45" fill="#272424"/>
<rect x="1305" y="360" width="45" height="45" fill="#272424"/>
<rect x="270" y="270" width="45" height="45" fill="#272424"/>
<rect x="1350" y="360" width="45" height="45" fill="#272424"/>
<rect x="1350" y="472" width="45" height="45" fill="#272424"/>
<rect x="1305" y="517" width="45" height="45" fill="#272424"/>
<rect x="1350" y="514" width="45" height="45" fill="#272424"/>
<rect x="315" y="225" width="45" height="45" fill="#272424"/>
<rect x="315" y="315" width="45" height="45" fill="#272424"/>
<rect x="1350" y="630" width="45" height="45" fill="#272424"/>
<rect x="270" y="540" width="45" height="45" fill="#272424"/>
<rect x="1350" y="900" width="45" height="45" fill="#272424"/>
<rect x="1260" y="900" width="45" height="45" fill="#272424"/>
<rect x="1125" y="855" width="45" height="45" fill="#272424"/>
<rect x="496" y="270" width="45" height="45" transform="rotate(180 496 270)" fill="#272424"/>
<rect x="360" y="630" width="45" height="45" transform="rotate(180 360 630)" fill="#272424"/>
<rect x="1080" y="900" width="45" height="45" fill="#272424"/>
<rect x="945" y="900" width="45" height="45" fill="#272424"/>
<rect x="450" y="900" width="45" height="45" fill="#272424"/>
<rect x="676" y="225" width="45" height="45" transform="rotate(180 676 225)" fill="#272424"/>
<rect x="810" y="900" width="45" height="45" fill="#272424"/>
<rect x="315" y="900" width="45" height="45" fill="#272424"/>
<rect x="855" y="900" width="45" height="45" fill="#272424"/>
<rect x="900" y="900" width="45" height="45" fill="#272424"/>
<rect x="900" y="855" width="45" height="45" fill="#272424"/>
<rect x="587" y="225" width="45" height="45" fill="#272424"/>
<rect x="1102" y="225" width="45" height="45" fill="#272424"/>
<rect x="1147" y="180" width="45" height="45" fill="#272424"/>
<rect x="1147" y="225" width="45" height="45" fill="#272424"/>
<rect x="1147" y="270" width="45" height="45" fill="#272424"/>
<rect x="1058" y="180" width="45" height="45" fill="#272424"/>
<rect x="315" y="360" width="45" height="45" fill="#272424"/>
<rect x="945" y="180" width="45" height="45" fill="#272424"/>
<rect x="518" y="900" width="45" height="45" fill="#272424"/>
<rect x="811" y="225" width="45" height="45" transform="rotate(180 811 225)" fill="#272424"/>
<rect x="765" y="855" width="45" height="45" fill="#272424"/>
<rect x="675" y="900" width="45" height="45" fill="#272424"/>
<rect x="270" y="765" width="45" height="45" fill="#272424"/>
<rect x="855" y="225" width="45" height="45" transform="rotate(180 855 225)" fill="#272424"/>
<rect x="855" y="270" width="45" height="45" transform="rotate(180 855 270)" fill="#272424"/>
<rect x="270" y="855" width="45" height="45" fill="#272424"/>
<rect x="1350" y="730" width="45" height="45" fill="#272424"/>
<rect x="1035" y="900" width="45" height="45" fill="#272424"/>
<rect x="586" y="225" width="45" height="45" transform="rotate(180 586 225)" fill="#272424"/>
<rect x="405" y="180" width="45" height="45" transform="rotate(90 405 180)" fill="#272424"/>
<rect x="315" y="900" width="45" height="45" transform="rotate(90 315 900)" fill="#272424"/>
<rect x="1350" y="810" width="45" height="45" fill="#272424"/>
<rect x="315" y="180" width="45" height="45" transform="rotate(90 315 180)" fill="#272424"/>
<rect x="1350" y="765" width="45" height="45" fill="#272424"/>
<rect x="1350" y="765" width="45" height="45" fill="#272424"/>
<rect x="360" y="180" width="45" height="45" transform="rotate(90 360 180)" fill="#272424"/>
</svg>
